HIERARCHY
ROOT pelvis
{
  OFFSET 0 100 0
  CHANNELS 6 Xposition Yposition Zposition Zrotation Xrotation Yrotation
  JOINT pelvis_right_femur
  {
    OFFSET -10.78128 -3.44521 -0.5502486
    CHANNELS 3 Zrotation Xrotation Yrotation
    JOINT right_femur_tibia
    {
      OFFSET -0.8047443 -44.0398 -0.1307829
      CHANNELS 3 Zrotation Xrotation Yrotation
      JOINT right_tibia_foot
      {
        OFFSET 3.006224 -47.83518 -5
        CHANNELS 3 Zrotation Xrotation Yrotation
        End Site
        {
          OFFSET 0 -5 15
        }
      }
    }
  }
  JOINT pelvis_left_femur
  {
    OFFSET 10.78128 -3.44521 -0.5502486
    CHANNELS 3 Zrotation Xrotation Yrotation
    JOINT left_femur_tibia
    {
      OFFSET 0.8047443 -44.0398 -0.1307829
      CHANNELS 3 Zrotation Xrotation Yrotation
      JOINT left_tibia_foot
      {
        OFFSET -4.370144 -48.10324 -4.275266
        CHANNELS 3 Zrotation Xrotation Yrotation
        End Site
        {
          OFFSET 0 -5 15
        }
      }
    }
  }
  JOINT pelvis_spine1
  {
    OFFSET 0 6.468898 -3.129235
    CHANNELS 3 Zrotation Xrotation Yrotation
    JOINT spine1
    {
      OFFSET 0 23.15396 4.99043
      CHANNELS 3 Zrotation Xrotation Yrotation
      JOINT spine2
      {
        OFFSET 0 20.79997 -5.064912
        CHANNELS 3 Zrotation Xrotation Yrotation
        JOINT neck
        {
          OFFSET 0 14.38658 9.616178
          CHANNELS 3 Zrotation Xrotation Yrotation
          End Site
          {
            OFFSET 0 20 0
          }
        }
      }
      JOINT right_manubrium
      {
        OFFSET -5.722621 16.35077 3.967754
        CHANNELS 3 Zrotation Xrotation Yrotation
        JOINT right_clavicle
        {
          OFFSET -13.16364 1.694482 -4.693211
          CHANNELS 3 Zrotation Xrotation Yrotation
          JOINT right_humerus
          {
            OFFSET -28.5034 -0.3100689 -2.792744
            CHANNELS 3 Zrotation Xrotation Yrotation
            JOINT right_radius
            {
              OFFSET -25.15693 0.02248979 -1.271978
              CHANNELS 3 Zrotation Xrotation Yrotation
              End Site
              {
                OFFSET -15 0 0
              }
            }
          }
        }
      }
      JOINT left_manubrium
      {
        OFFSET 5.722621 16.35077 3.967754
        CHANNELS 3 Zrotation Xrotation Yrotation
        JOINT left_clavicle
        {
          OFFSET 13.16364 1.694482 -4.693211
          CHANNELS 3 Zrotation Xrotation Yrotation
          JOINT left_humerus
          {
            OFFSET 29.39168 -1.063119 -2.237045
            CHANNELS 3 Zrotation Xrotation Yrotation
            JOINT left_radius
            {
              OFFSET 24.59957 -0.9528479 0.9047498
              CHANNELS 3 Zrotation Xrotation Yrotation
              End Site
              {
                OFFSET 15 -0 -0
              }
            }
          }
        }
      }
    }
  }
}
MOTION
Frames: 20
Frame Time: 0.0416666666667
0 103.5113 0 0.7756735 -1.289746 0.1372403 3.742379 -15.39569 8.546761 -1.794176e-08 36.67498 1.66368e-08 -6.405303 -18.2403 -3.1154 -6.929951 5.538025 -22.47487 -4.248524e-08 5.891465 1.089939e-08 7.22748 -18.20519 26.19435 -3.668636 -2.305965 4.697964 2.258749 8.765407 -7.105682 1.256952 22.8275 6.799246 2.926357 -23.8453 9.257188 5.963937 -20.02326 11.66403 84.06578 35.52838 -16.66977 -7.417406e-09 -5.235736e-09 17.63309 -6.930069 7.753406 4.776805 5.5035 -19.00352 -1.331388 -95.89448 29.98865 24.53687 2.085994e-09 -3.906489e-09 -14.69012 3.297698 17.87095 9.805885
0.3541 103.4841 0.9829066 0.7122545 -1.200137 0.3620788 3.803329 -17.06082 8.748572 -1.580217e-08 39.03391 1.57855e-08 -6.078854 -17.02494 -3.408287 -6.947039 7.545591 -22.63455 -3.873722e-08 5.711141 1.022284e-08 7.128199 -18.55821 25.79517 -3.665659 -2.436695 4.46641 2.32882 8.879346 -7.374587 1.235409 22.66037 6.913606 2.926185 -23.9635 9.386365 6.170252 -19.84322 11.6667 84.76923 35.5429 -17.52984 -6.595235e-09 -4.507343e-09 17.40495 -6.871234 8.077637 4.660924 5.424987 -19.11481 -1.43779 -95.72356 29.99782 24.36665 1.526461e-09 -3.602256e-09 -14.94761 3.136994 17.65225 10.09577
0.7040222 103.5392 2.150309 0.5835342 -0.8895727 0.6630717 3.9651 -18.92876 8.68756 -1.281589e-08 39.55144 1.373083e-08 -5.946393 -15.83534 -3.55859 -6.837665 9.363911 -22.54888 -3.340242e-08 5.504799 8.866753e-09 6.904742 -18.93904 25.14354 -3.59572 -2.561136 4.216586 2.450051 8.941526 -7.67495 1.182986 22.45617 7.035263 2.959122 -24.14801 9.454571 6.284773 -19.63435 11.66216 85.45908 35.58687 -18.44683 -5.566826e-09 -3.669359e-09 17.00308 -6.919032 8.400156 4.628593 5.462603 -19.38737 -1.505202 -95.35161 29.85368 23.9455 1.056877e-09 -3.140151e-09 -15.52695 3.194588 17.4541 10.1178
1.033733 103.6057 3.597423 0.3818969 -0.3296405 1.016673 4.210546 -21.00329 8.351621 -9.124398e-09 38.21676 1.058017e-08 -6.001576 -14.61461 -3.544505 -6.618509 10.96567 -22.20181 -2.618936e-08 5.359665 6.772851e-09 6.507979 -19.35257 24.21077 -3.461858 -2.67382 3.94982 2.625122 8.94337 -8.010467 1.095031 22.23014 7.182123 3.038706 -24.42414 9.469758 6.328044 -19.37844 11.65927 86.19738 35.71823 -19.4557 -4.2892e-09 -2.715186e-09 16.402 -7.116507 8.733879 4.70556 5.625062 -19.82929 -1.513373 -94.83543 29.55866 23.27134 6.941598e-10 -2.489941e-09 -16.44959 3.4615 17.25932 9.893093
1.326054 103.5941 5.352319 0.155079 0.3889978 1.392542 4.478065 -23.11428 7.765508 -6.099856e-09 35.09301 7.484528e-09 -6.221755 -13.533 -3.361518 -6.348092 12.18747 -21.62796 -1.916907e-08 5.284429 4.485074e-09 6.055052 -19.7834 23.14583 -3.301973 -2.755591 3.703959 2.829681 8.89506 -8.345982 0.9755816 22.00311 7.337725 3.15936 -24.7309 9.414794 6.290034 -19.08587 11.65809 86.82949 35.92086 -20.45827 -3.143277e-09 -1.939259e-09 15.61974 -7.44186 9.01434 4.854378 5.907882 -20.41814 -1.478821 -94.08303 29.15138 22.28588 5.549531e-10 -1.836939e-09 -17.72276 3.939854 17.08836 9.394614
1.573875 103.4561 7.45418 -0.1131129 1.225906 1.771784 4.752612 -25.15259 7.026353 -3.3704e-09 30.87515 4.35688e-09 -6.557368 -12.50979 -3.061095 -6.032803 13.11437 -20.89176 -1.141163e-08 5.351569 1.863727e-09 5.482791 -20.16229 21.93767 -3.1076 -2.814726 3.467173 3.051222 8.794094 -8.665789 0.8414245 21.76539 7.493242 3.301059 -25.05777 9.31728 6.205366 -18.75397 11.64805 87.34581 36.17969 -21.39875 -1.917104e-09 -1.171966e-09 14.7304 -7.839836 9.264005 5.063459 6.251223 -21.05274 -1.391352 -93.21322 28.666 21.16565 5.309209e-10 -1.109415e-09 -19.1135 4.516458 16.90762 8.763966
1.776905 103.1641 9.980064 -0.4446663 2.10887 2.142689 5.045578 -27.00569 6.220031 -2.823536e-10 26.04678 9.121297e-10 -6.947379 -11.52707 -2.732297 -5.644255 13.83311 -20.01233 -1.664518e-09 5.701729 -1.366997e-09 4.653097 -20.42632 20.5525 -2.853201 -2.842377 3.224056 3.274383 8.626462 -8.950537 0.7244394 21.53474 7.626933 3.43051 -25.36348 9.211365 6.074781 -18.37258 11.61282 87.83962 36.40807 -22.24077 -3.262824e-10 -1.818755e-10 13.81582 -8.302421 9.535577 5.336229 6.614781 -21.6429 -1.242161 -92.39588 28.12281 20.03886 4.930932e-10 -2.0406e-10 -20.41127 5.070291 16.68168 8.141936
1.94884 102.7645 12.98931 -0.8246192 2.890569 2.508775 5.357462 -28.47407 5.552497 3.508896e-09 21.9602 -2.743819e-09 -7.294108 -10.49619 -2.494086 -5.228887 14.49541 -19.14463 1.01992e-08 6.632213 -5.135121e-09 3.559635 -20.45382 19.08009 -2.547418 -2.847058 2.973082 3.468555 8.424239 -9.172907 0.6544772 21.32578 7.72075 3.517021 -25.60834 9.139801 5.961177 -17.94444 11.54914 88.32504 36.55556 -22.92829 1.721213e-09 1.126217e-09 12.98356 -8.720733 9.844463 5.610248 6.887247 -22.04385 -1.054521 -91.80124 27.62683 19.14887 2.988188e-10 8.783075e-10 -21.27237 5.431037 16.3962 7.74107
2.111325 102.3579 16.51701 -1.243483 3.480322 2.872548 5.717943 -29.34303 5.134102 8.200051e-09 19.27495 -6.569422e-09 -7.593137 -9.383896 -2.384383 -4.806788 15.08075 -18.35747 2.399926e-08 8.439675 -9.53344e-09 2.253741 -20.09098 17.57795 -2.182626 -2.842402 2.727755 3.615671 8.225119 -9.306624 0.6418613 21.11783 7.748791 3.542636 -25.76172 9.097045 5.886244 -17.48826 11.45552 88.66661 36.57725 -23.36118 4.208967e-09 2.754857e-09 12.28813 -8.995519 10.17329 5.830886 6.984731 -22.17339 -0.8599057 -91.4223 27.21286 18.65346 -1.26491e-10 2.106938e-09 -21.47058 5.540223 16.05998 7.62959
2.299692 102.1169 20.59543 -1.679964 3.808795 3.239156 6.123614 -29.33148 5.024388 1.391213e-08 18.74017 -1.069031e-08 -7.837674 -7.99671 -2.388914 -4.427763 15.44779 -17.66879 3.958424e-08 11.60838 -1.490838e-08 0.789493 -19.16215 16.0963 -1.764138 -2.841878 2.520278 3.693542 8.093599 -9.330035 0.6786371 20.90312 7.717677 3.521039 -25.8322 9.072085 5.901264 -17.02291 11.35789 88.79659 36.49882 -23.4854 7.05526e-09 4.633809e-09 11.74656 -9.136449 10.52362 5.996637 6.826139 -21.98676 -0.6853936 -91.29146 26.88133 18.7187 -8.264964e-10 3.432987e-09 -20.82282 5.364545 15.6537 7.867928
2.537364 102.1709 25.25184 -2.118519 3.864772 3.575686 6.636232 -28.28085 5.168998 2.010999e-08 19.32248 -1.491127e-08 -8.063161 -6.680034 -2.478146 -4.037887 15.21085 -16.93535 5.614219e-08 16.50097 -2.190481e-08 -0.8140593 -17.61459 14.70445 -1.267546 -2.823902 2.425931 3.713243 8.057508 -9.246153 0.7569379 20.7249 7.612462 3.458519 -25.81929 9.027993 5.956148 -16.61385 11.29847 88.82641 36.2993 -23.35185 9.975546e-09 6.577977e-09 11.39797 -9.232521 10.92725 6.125085 6.466555 -21.5993 -0.5297551 -91.51471 26.56544 19.31628 -1.70421e-09 4.726883e-09 -19.55666 4.971872 15.19655 8.369768
2.801379 102.6004 30.32442 -2.420361 3.520373 3.788407 7.240782 -26.28589 5.522542 2.395116e-08 20.00246 -1.732044e-08 -8.298741 -5.956176 -2.639827 -3.704128 14.14865 -16.13757 6.772967e-08 23.46308 -2.92185e-08 -2.17695 -15.56347 13.71491 -0.7635185 -2.751747 2.537251 3.673833 8.192467 -9.06484 0.8528112 20.6225 7.406259 3.370764 -25.63158 8.879594 5.998225 -16.27081 11.31566 88.57299 35.97074 -23.06101 1.169594e-08 7.720218e-09 11.09351 -9.20653 11.24886 6.042497 5.979021 -21.20106 -0.4770544 -91.68119 26.27632 20.00625 -2.376843e-09 5.406867e-09 -18.21794 4.56172 14.78798 8.845181
3.067536 103.4141 35.66717 -2.502181 2.821665 3.793666 7.740373 -22.99633 5.85555 2.409607e-08 20.15812 -1.736384e-08 -8.440019 -5.956284 -2.745177 -3.43975 11.58637 -15.1173 7.29096e-08 31.92371 -3.575282e-08 -3.303313 -13.21381 13.27653 -0.338284 -2.566211 2.944636 3.539195 8.479437 -8.748012 0.9409933 20.71433 7.169739 3.31639 -25.29599 8.633009 6.013825 -16.07931 11.46399 88.21438 35.6489 -22.54416 1.179832e-08 7.734628e-09 10.95178 -9.485763 11.52018 5.989658 5.487403 -20.87827 -0.4726534 -92.04802 25.96405 20.71906 -2.561311e-09 5.370411e-09 -17.04348 4.164447 14.38962 9.270481
3.300421 104.5202 41.01683 -2.247869 1.814019 3.540435 7.898855 -18.58772 5.986025 1.880645e-08 19.59167 -1.409283e-08 -8.402862 -6.737261 -2.671694 -3.316486 7.411385 -13.9582 6.557728e-08 40.24716 -3.63332e-08 -3.870337 -11.02701 13.6053 -0.14975 -2.260149 3.663087 3.278482 8.904035 -8.289963 0.9820075 21.01042 6.962217 3.339798 -24.79857 8.276872 5.975843 -16.11317 11.74306 87.55081 35.41899 -21.69512 9.558025e-09 6.095349e-09 11.01213 -10.24799 11.63328 6.063569 5.110425 -20.71698 -0.5439143 -92.34292 25.62683 21.16744 -1.938857e-09 4.362891e-09 -16.36598 3.916651 14.04681 9.462173
3.469346 105.7465 46.14844 -1.731898 0.7190703 3.055281 7.669577 -13.83071 5.832487 9.588764e-09 18.22906 -8.662595e-09 -8.172143 -8.0283 -2.390035 -3.279781 2.355383 -12.80667 4.472522e-08 46.44311 -2.724204e-08 -3.885078 -9.433577 14.50023 -0.2308788 -1.881243 4.527022 2.922456 9.328986 -7.74319 0.9725045 21.41155 6.816845 3.428135 -24.17737 7.865047 5.844885 -16.32815 12.05498 86.49631 35.26151 -20.49527 5.62204e-09 3.229862e-09 11.25254 -11.44161 11.55875 6.326549 4.936586 -20.68886 -0.6584403 -92.31216 25.27447 21.15939 -6.510676e-10 2.690253e-09 -16.23757 3.863501 13.77049 9.35402
3.600385 106.9346 51.04284 -1.125119 -0.1880576 2.411356 7.112848 -8.806838 5.402259 -4.151788e-10 16.68692 -3.443824e-09 -7.775603 -9.246658 -1.80968 -3.219912 -3.349753 -11.6684 1.797638e-08 49.75263 -1.203252e-08 -3.636703 -8.37482 15.61844 -0.5082388 -1.505627 5.436715 2.504413 9.67436 -7.137625 0.902499 21.83295 6.792666 3.591367 -23.62435 7.471589 5.686515 -16.76034 12.37427 85.23717 35.2721 -18.89169 1.402128e-09 3.379606e-11 11.82436 -13.148 11.42132 6.992981 4.928484 -20.6745 -0.7101377 -92.36542 24.84013 21.18102 9.060633e-10 9.898557e-10 -16.22845 3.884215 13.47297 9.17048
3.730856 107.8855 55.77635 -0.5554887 -0.8779099 1.665935 6.409039 -4.10315 4.841966 -8.838415e-09 14.7691 4.655161e-10 -7.161338 -10.47575 -1.145632 -2.99677 -8.882994 -10.54308 -6.180395e-09 49.72848 2.623069e-09 -3.336783 -7.896048 16.70958 -0.861321 -1.174423 6.262256 2.077824 9.866667 -6.544281 0.8259483 22.16976 6.814403 3.725281 -23.07731 7.146365 5.425923 -17.37065 12.61337 83.92034 35.1591 -17.00271 -2.132799e-09 -2.754015e-09 12.81113 -15.13064 11.34045 7.963538 5.072737 -20.60996 -0.7031317 -92.47636 24.30844 21.25214 2.32394e-09 -3.867763e-10 -16.23608 3.857568 13.12041 9.026122
3.920254 108.3739 60.38572 -0.04526369 -1.30036 0.8906124 5.545209 -0.004504702 4.259543 -1.486248e-08 12.7427 2.885321e-09 -6.283697 -11.89945 -0.4593036 -2.652209 -13.82759 -9.607564 -2.199648e-08 45.19877 1.114132e-08 -2.852058 -8.164492 17.81488 -1.289175 -0.9354332 6.939422 1.666582 9.847959 -5.985402 0.7605818 22.33502 6.846713 3.771497 -22.52062 6.92557 5.043931 -18.21598 12.70691 82.38402 34.82723 -14.73492 -4.662365e-09 -4.881863e-09 14.39106 -17.13173 11.28221 9.157735 5.351668 -20.39274 -0.6367629 -92.57902 23.76202 21.50446 3.438874e-09 -1.340279e-09 -16.11276 3.709483 12.75714 8.990944
4.222618 108.3217 64.9833 0.3033845 -1.429971 0.1469411 4.695615 3.33179 3.771195 -1.731353e-08 11.14627 3.410493e-09 -5.301337 -13.17012 0.1656059 -2.192949 -17.77406 -8.852114 -2.565836e-08 37.86078 1.130871e-08 -2.405497 -8.798716 18.68127 -1.659698 -0.8199585 7.412886 1.320469 9.66833 -5.512309 0.718687 22.28598 6.866534 3.72266 -22.03734 6.815513 4.619763 -19.17058 12.663 80.84204 34.29522 -12.36758 -5.615194e-09 -5.882513e-09 16.351 -18.90591 11.31073 10.43377 5.636456 -19.99641 -0.5135094 -92.7606 23.21467 22.12101 4.010276e-09 -1.628936e-09 -15.63731 3.396039 12.36593 9.164129
4.66568 107.7344 69.66146 0.4975059 -1.364058 -0.5165263 3.924618 5.817368 3.438024 -1.66656e-08 10.25296 2.578128e-09 -4.292939 -14.18644 0.6397776 -1.704671 -20.53789 -8.296771 -2.164057e-08 29.21449 7.375473e-09 -2.073613 -9.604432 19.2698 -1.936783 -0.8054246 7.681447 1.050418 9.386814 -5.143584 0.7110062 22.06592 6.859391 3.587514 -21.6187 6.805566 4.199938 -20.10329 12.50541 79.45061 33.59721 -10.14844 -5.236995e-09 -5.808924e-09 18.43814 -20.328 11.42915 11.6407 5.868816 -19.45943 -0.3666098 -92.96717 22.7205 22.97666 4.049745e-09 -1.362506e-09 -14.85841 2.936397 11.9577 9.532023
